<svg xmlns="http://www.w3.org/2000/svg" x="0px" y="0px" width="48" height="48" viewBox="0 0 48 48" style=" fill:#000000;">
      <path fill="#d7ccc8" d="M15 44L27 41 6 41z"></path>
      <path fill="#fff176" d="M6 7H27V41H6z"></path>
      <path fill="#fff59d" d="M6 41L27 41 27 17 6 7z"></path>
      <path fill="#fff9c4" d="M6 41L27 41 27 31 6 7z"></path>
      <path fill="#f44336" d="M6 41L13 44 13 4 6 7z"></path>
      <path fill="#e0e0e0" d="M11.5 25A0.5 1 0 1 0 11.5 27A0.5 1 0 1 0 11.5 25Z"></path>
      <path fill="#d50000" d="M13 4H15V44H13z"></path>
      <path fill="#ffa726" d="M24,19.008c0,0,0.5,0.96,2,0.96c1.667,0,2-0.96,2-0.96v-2.331h-4V19.008z"></path>
      <path fill="#455a64" d="M22 32L23 43 26.002 43 29 43 30 32 30 30 22 30z"></path>
      <path fill="#ffb74d" d="M20 31L22 32 22 25 20 24zM30 32L32 31 32 24 30 25zM26 10A4 4 0 1 0 26 18 4 4 0 1 0 26 10z"></path>
      <path fill="#424242" d="M27.571,9.812L27.19,9h-1.362C23.881,9,22,10.223,22,13.667V14l1,1v-2.5l4.75-1.5L29,12.5V15l1-1 v-0.333C30,11.707,29.823,10.292,27.571,9.812z"></path>
      <path fill="#263238" d="M25.457 43L26.547 43 26.002 32.032z"></path>
      <path fill="#039be5" d="M28.939,19.349c-0.072,0.2-0.66,1.618-2.939,1.618c-1.663,0-2.597-0.941-2.887-1.498l-0.061-0.117 C20.003,20.796,20,24,20.004,24.355L22,25v6h8v-6l2-1C32,24,31.99,20.791,28.939,19.349z"></path>
      <path fill="#90caf9" d="M28,19.008c0,0-0.333,0.96-2,0.96c-1.5,0-2-0.96-2-0.96v-0.011c-0.348,0.094-0.658,0.218-0.948,0.356 l0.061,0.117c0.29,0.556,1.224,1.498,2.887,1.498c2.279,0,2.868-1.418,2.939-1.618c-0.288-0.136-0.595-0.259-0.939-0.352V19.008z"></path>
      <path fill="#f44336" d="M42.333,9h-6.667C34.747,9,34,9.747,34,10.667v6.667C34,18.253,34.747,19,35.667,19h6.667 C43.253,19,44,18.253,44,17.333v-6.667C44,9.747,43.253,9,42.333,9z"></path>
      <path fill="#fff" d="M38 11H40V17H38z"></path>
      <path fill="#fff" d="M36 13H42V15H36z"></path>
      </svg>